<svg width="23" height="16" viewBox="0 0 23 16" fill="none" xmlns="http://www.w3.org/2000/svg">
<path d="M1 7C0.447715 7 -9.65645e-08 7.44772 0 8C9.65645e-08 8.55228 0.447715 9 1 9L1 7ZM21.8361 8.7071C22.2267 8.31658 22.2267 7.68341 21.8361 7.29289L15.4722 0.92893C15.0817 0.538405 14.4485 0.538406 14.058 0.92893C13.6674 1.31945 13.6674 1.95262 14.058 2.34314L19.7148 8L14.058 13.6569C13.6674 14.0474 13.6674 14.6805 14.058 15.0711C14.4485 15.4616 15.0817 15.4616 15.4722 15.0711L21.8361 8.7071ZM1 9L21.129 9L21.129 7L1 7L1 9Z" fill="#1E1B1B"/>
</svg>
